# xmcd
#
# Track frame offsets:
#	150
#	16448
#	27913
#	43422
#	63125
#	82531
#	101197
#	115546
#	130340
#	146638
#	158078
#	173587
#	193065
#	212463
#	230938
#	245278
#	271472
#
# Disc length: 3632 seconds
#
# Revision: 2
# Processed by: cddbd v1.5.2PL0 Copyright (c) Steve Scherf et al.
# Submitted via: audiograbber 1.83.01
#
DISCID=e50e2e11
DTITLE=Various Artist - SC2457
DYEAR=1999
DGENRE=R&B
TTITLE0=Gaye, Marvin - I Heard It Throught The Grapevine
TTITLE1=Duets Marvin Gaye and Tammi Terrell - Ain't Nothing Like The Real Thing
TTITLE2=Gaye, Marvin - Mercy, Mercy Me
TTITLE3=Gaye, Marvin - Let's Get It On
TTITLE4=Gaye, Marvin - Sexual Healing
TTITLE5=Gaye, Marvin - What's Going On
TTITLE6=Gaye, Marvin - Too Busy Thinking About My Baby
TTITLE7=Gaye, Marvin - How Sweet It Is To Be Loved By You
TTITLE8=Marvin Gaye - I Heard It Throught The Grapevine w - vocal
TTITLE9=Marvin Gaye and Tammi Terrell - Ain't Nothing Like The Real Thing w - voc
TTITLE9=al
TTITLE10=Marvin Gaye - Mercy, Mercy Me w - vocal
TTITLE11=Marvin Gaye - Let's Get It On w - vocal
TTITLE12=Marvin Gaye - Sexual Healing w - vocal
TTITLE13=Marvin Gaye - What's Going On w - vocal
TTITLE14=Marvin Gaye - Too Busy Thinking About My Baby w - vocal
TTITLE15=Marvin Gaye - How Sweet It Is To Be Loved By You w - vocal
TTITLE16=xx - Data Track
EXTD=
EXTT0=
EXTT1=
EXTT2=
EXTT3=
EXTT4=
EXTT5=
EXTT6=
EXTT7=
EXTT8=
EXTT9=
EXTT10=
EXTT11=
EXTT12=
EXTT13=
EXTT14=
EXTT15=
EXTT16=
PLAYORDER=
